<?xml version="1.0" encoding="UTF-8" standalone="no"?>
<svg width="60px" height="180px" viewBox="0 0 60 180" version="1.1" xmlns="http://www.w3.org/2000/svg" xmlns:xlink="http://www.w3.org/1999/xlink">
    <!-- Generator: Sketch 3.6.1 (26313) - http://www.bohemiancoding.com/sketch -->
    <title>pricing_plans</title>
    <desc>Created with Sketch.</desc>
    <defs></defs>
    <g id="Pricing" stroke="none" stroke-width="1" fill="none" fill-rule="evenodd">
        <g id="pricing_plans">
            <g id="Business-Solutions-/-Pricing-/-Plan-3" transform="translate(0.000000, 120.000000)" fill="#1ABC9C">
                <path d="M57.0666978,58 L40.2663245,58 L36.5331156,58 L8.53311556,58 L4.79990667,58 L2.93330222,58 C2.4181194,58 2,57.5818458 2,57.06662 C2,56.5513942 2.4181194,56.13324 2.93330222,56.13324 L3.86660445,56.13324 L3.86660445,10.40042 C3.86660445,9.88519426 4.28472384,9.46704002 4.79990667,9.46704002 L9.46641779,9.46704002 L9.46641779,6.66690001 C9.46641779,6.15167425 9.88453718,5.73352001 10.39972,5.73352001 L21.60028,5.73352001 L21.60028,2.93338 C21.60028,2.41815424 22.0174661,2 22.5326489,2 C23.048765,2 23.4668844,2.41815424 23.4668844,2.93338 L23.4668844,5.73352001 L34.6665111,5.73352001 C35.1816939,5.73352001 35.5998133,6.15167425 35.5998133,6.66690001 L35.5998133,9.46704002 L40.2663245,9.46704002 C40.7815073,9.46704002 41.1996267,9.88519426 41.1996267,10.40042 L41.1996267,56.13324 L48.6669778,56.13324 L48.6669778,48.5719286 C45.508683,48.1145724 43.0662311,45.4161708 43.0662311,42.1334733 C43.0662311,39.5508109 45.3397553,26.2669467 49.60028,26.2669467 C53.8598713,26.2669467 56.1333956,39.5508109 56.1333956,42.1334733 C56.1333956,45.4161708 53.6918769,48.1145724 50.5335822,48.5719286 L50.5335822,56.13324 L57.0666978,56.13324 C57.5818806,56.13324 58,56.5513942 58,57.06662 C58,57.5818458 57.5818806,58 57.0666978,58 L57.0666978,58 Z M30,56.13324 L35.5998133,56.13324 L35.5998133,43.0668533 L30,43.0668533 L30,56.13324 L30,56.13324 Z M31.8666044,20.6666667 L31.8666044,24.4001867 L35.5998133,24.4001867 L35.5998133,20.6666667 L31.8666044,20.6666667 L31.8666044,20.6666667 Z M35.5998133,18.7999067 L35.5998133,15.06732 L31.8666044,15.06732 L31.8666044,18.7999067 L35.5998133,18.7999067 L35.5998133,18.7999067 Z M31.8666044,26.2669467 L31.8666044,30.0004667 L35.5998133,30.0004667 L35.5998133,26.2669467 L31.8666044,26.2669467 L31.8666044,26.2669467 Z M31.8666044,31.8672267 L31.8666044,35.5998133 L35.5998133,35.5998133 L35.5998133,31.8672267 L31.8666044,31.8672267 L31.8666044,31.8672267 Z M31.8666044,37.4665733 L31.8666044,41.2000933 L35.5998133,41.2000933 L35.5998133,37.4665733 L31.8666044,37.4665733 L31.8666044,37.4665733 Z M26.2667911,20.6666667 L26.2667911,24.4001867 L30,24.4001867 L30,20.6666667 L26.2667911,20.6666667 L26.2667911,20.6666667 Z M30,18.7999067 L30,15.06732 L26.2667911,15.06732 L26.2667911,18.7999067 L30,18.7999067 L30,18.7999067 Z M26.2667911,26.2669467 L26.2667911,30.0004667 L30,30.0004667 L30,26.2669467 L26.2667911,26.2669467 L26.2667911,26.2669467 Z M26.2667911,31.8672267 L26.2667911,35.5998133 L30,35.5998133 L30,31.8672267 L26.2667911,31.8672267 L26.2667911,31.8672267 Z M26.2667911,37.4665733 L26.2667911,41.2000933 L30,41.2000933 L30,37.4665733 L26.2667911,37.4665733 L26.2667911,37.4665733 Z M23.4668844,56.13324 L28.1333956,56.13324 L28.1333956,43.0668533 L23.4668844,43.0668533 L23.4668844,56.13324 L23.4668844,56.13324 Z M20.6669778,20.6666667 L20.6669778,24.4001867 L24.4001867,24.4001867 L24.4001867,20.6666667 L20.6669778,20.6666667 L20.6669778,20.6666667 Z M24.4001867,18.7999067 L24.4001867,15.06732 L20.6669778,15.06732 L20.6669778,18.7999067 L24.4001867,18.7999067 L24.4001867,18.7999067 Z M20.6669778,26.2669467 L20.6669778,30.0004667 L24.4001867,30.0004667 L24.4001867,26.2669467 L20.6669778,26.2669467 L20.6669778,26.2669467 Z M20.6669778,31.8672267 L20.6669778,35.5998133 L24.4001867,35.5998133 L24.4001867,31.8672267 L20.6669778,31.8672267 L20.6669778,31.8672267 Z M20.6669778,37.4665733 L20.6669778,41.2000933 L24.4001867,41.2000933 L24.4001867,37.4665733 L20.6669778,37.4665733 L20.6669778,37.4665733 Z M16.9328356,56.13324 L21.60028,56.13324 L21.60028,43.0668533 L16.9328356,43.0668533 L16.9328356,56.13324 L16.9328356,56.13324 Z M15.0662311,20.6666667 L15.0662311,24.4001867 L18.8003733,24.4001867 L18.8003733,20.6666667 L15.0662311,20.6666667 L15.0662311,20.6666667 Z M18.8003733,18.7999067 L18.8003733,15.06732 L15.0662311,15.06732 L15.0662311,18.7999067 L18.8003733,18.7999067 L18.8003733,18.7999067 Z M15.0662311,26.2669467 L15.0662311,30.0004667 L18.8003733,30.0004667 L18.8003733,26.2669467 L15.0662311,26.2669467 L15.0662311,26.2669467 Z M15.0662311,31.8672267 L15.0662311,35.5998133 L18.8003733,35.5998133 L18.8003733,31.8672267 L15.0662311,31.8672267 L15.0662311,31.8672267 Z M15.0662311,37.4665733 L15.0662311,41.2000933 L18.8003733,41.2000933 L18.8003733,37.4665733 L15.0662311,37.4665733 L15.0662311,37.4665733 Z M9.46641779,56.13324 L15.0662311,56.13324 L15.0662311,43.0668533 L9.46641779,43.0668533 L9.46641779,56.13324 L9.46641779,56.13324 Z M9.46641779,41.2000933 L13.1996267,41.2000933 L13.1996267,37.4665733 L9.46641779,37.4665733 L9.46641779,41.2000933 L9.46641779,41.2000933 Z M9.46641779,35.5998133 L13.1996267,35.5998133 L13.1996267,31.8672267 L9.46641779,31.8672267 L9.46641779,35.5998133 L9.46641779,35.5998133 Z M9.46641779,30.0004667 L13.1996267,30.0004667 L13.1996267,26.2669467 L9.46641779,26.2669467 L9.46641779,30.0004667 L9.46641779,30.0004667 Z M9.46641779,24.4001867 L13.1996267,24.4001867 L13.1996267,20.6666667 L9.46641779,20.6666667 L9.46641779,24.4001867 L9.46641779,24.4001867 Z M9.46641779,18.7999067 L13.1996267,18.7999067 L13.1996267,15.06732 L9.46641779,15.06732 L9.46641779,18.7999067 L9.46641779,18.7999067 Z M33.7332089,7.60028001 L11.3330222,7.60028001 L11.3330222,9.46704002 L33.7332089,9.46704002 L33.7332089,7.60028001 L33.7332089,7.60028001 Z M39.3330222,11.3338 L34.6665111,11.3338 L10.39972,11.3338 L5.73320889,11.3338 L5.73320889,56.13324 L7.59981334,56.13324 L7.59981334,14.13394 C7.59981334,13.6177809 8.01793274,13.20056 8.53311556,13.20056 L36.5331156,13.20056 C37.0482984,13.20056 37.4664178,13.6177809 37.4664178,14.13394 L37.4664178,56.13324 L39.3330222,56.13324 L39.3330222,11.3338 L39.3330222,11.3338 Z M54.2667911,42.1334733 C54.2667911,36.5677284 50.9526349,28.1337067 49.60028,28.1337067 C48.2469918,28.1337067 44.9328356,36.5677284 44.9328356,42.1334733 C44.9328356,44.706802 47.0271658,46.8003734 49.60028,46.8003734 C52.1724609,46.8003734 54.2667911,44.706802 54.2667911,42.1334733 L54.2667911,42.1334733 Z M48.8387054,35.166725 C48.3365888,35.2824641 47.8363388,34.9651149 47.7224759,34.4620231 C47.608613,33.9598647 47.9240692,33.459573 48.4271191,33.3457006 C49.6040132,33.0750204 50.6082464,33.5006417 51.3287557,34.5637615 C51.6180794,34.9903162 51.5060831,35.5708785 51.079564,35.8602263 C50.919036,35.9684984 50.7370421,36.0207677 50.5569148,36.0207677 C50.2573248,36.0207677 49.9633346,35.8770272 49.7832072,35.6100805 C49.461218,35.1340567 49.1961601,35.0883211 48.8387054,35.166725 L48.8387054,35.166725 Z M48.6371121,42.9660483 C49.1373621,43.0920546 49.4406853,43.5998133 49.3137562,44.0991716 C49.2073598,44.5229261 48.8265724,44.8048069 48.4103197,44.8048069 C48.3337889,44.8048069 48.2572581,44.7954731 48.1807273,44.7758721 C47.3631546,44.5695951 46.3477217,43.9862326 46.1442619,42.3761521 C46.0807973,41.8646599 46.4429186,41.3979699 46.9534349,41.3335667 C47.4648845,41.2738304 47.9315356,41.6313149 47.9968668,42.1428071 C48.068731,42.7140357 48.2861905,42.8773772 48.6371121,42.9660483 L48.6371121,42.9660483 Z" id="Icon"></path>
            </g>
            <g id="Business-Solutions-/-Pricing-/-Plan-2" transform="translate(0.000000, 60.000000)" fill="#24A7BC">
                <path d="M53.3334889,46.4370898 C55.9066031,46.4370898 58,48.5400338 58,51.1248828 L58,52.0624414 C58,52.5799737 57.5828139,53 57.0666978,53 L36.5340489,53 L23.4668844,53 L2.93423553,53 C2.4181194,53 2,52.5799737 2,52.0624414 L2,51.1248828 C2,48.6019126 3.99446685,46.5392837 6.48171728,46.4408401 C6.78130729,45.9186199 7.1648945,45.463904 7.59981334,45.0720045 L7.59981334,26.7502344 L4.79990667,26.7502344 C4.28472384,26.7502344 3.86660445,26.3302081 3.86660445,25.8126758 L3.86660445,22.0624414 C3.86660445,21.6921058 4.08406386,21.3564598 4.42098597,21.2055128 L29.6210793,9.95574723 C29.8628046,9.847928 30.1381287,9.847928 30.379854,9.95574723 L44.0004667,16.0367523 L44.0004667,13.624414 C43.4852838,13.624414 43.0671644,13.2053253 43.0671644,12.6868554 L43.0671644,8.9375586 C43.0671644,8.41908869 43.4852838,8 44.0004667,8 L51.4668844,8 C51.9820673,8 52.4001867,8.41908869 52.4001867,8.9375586 L52.4001867,12.6868554 C52.4001867,13.2053253 51.9820673,13.624414 51.4668844,13.624414 L51.4668844,19.3697731 L55.5799473,21.2055128 C55.9159361,21.3564598 56.1333956,21.6921058 56.1333956,22.0624414 L56.1333956,25.8126758 C56.1333956,26.3302081 55.7162095,26.7502344 55.2000933,26.7502344 L52.4001867,26.7502344 L52.4001867,46.5430339 C52.7063098,46.47928 53.0170994,46.4370898 53.3334889,46.4370898 L53.3334889,46.4370898 Z M37.4673511,29.5619726 L37.4673511,47.8978061 C37.5774808,47.8340521 37.6876104,47.7693606 37.8061398,47.7159197 C38.4015866,46.3723983 39.7110096,45.4995312 41.20056,45.4995312 C41.6354788,45.4995312 42.0619979,45.5754735 42.4651845,45.720795 C43.519816,44.4100881 45.1129629,43.6253516 46.8003733,43.6253516 C48.2143262,43.6253516 49.5302823,44.1794487 50.5335822,45.0945059 L50.5335822,25.8126758 L50.5335822,24.5516595 L30,15.5848491 L9.46735109,24.5516595 L9.46735109,25.8126758 L9.46735109,43.9581849 C10.0571981,43.7481718 10.6834439,43.6253516 11.3339555,43.6253516 C13.0204327,43.6253516 14.6145128,44.4100881 15.6691444,45.720795 C16.0723309,45.5754735 16.4979167,45.4995312 16.9337689,45.4995312 C18.2935902,45.4995312 19.5246158,46.2523908 20.1741942,47.4084005 C20.3375221,47.3868367 20.5017833,47.3746484 20.6669778,47.3746484 C21.350155,47.3746484 21.9820006,47.5734108 22.5335822,47.8968686 L22.5335822,29.5619726 C22.5335822,29.0444403 22.9517016,28.624414 23.4668844,28.624414 L36.5340489,28.624414 C37.0492317,28.624414 37.4673511,29.0444403 37.4673511,29.5619726 L37.4673511,29.5619726 Z M35.5998133,30.4995312 L24.4001867,30.4995312 L24.4001867,51.1248828 L35.5998133,51.1248828 L35.5998133,30.4995312 L35.5998133,30.4995312 Z M6.94556848,48.3450216 L6.79157361,48.3262704 C6.75050832,48.320645 6.70944302,48.312207 6.66651112,48.312207 C5.12282924,48.312207 3.86660445,49.5741609 3.86660445,51.1248828 L22.5335822,51.1248828 C22.5326489,49.8582411 21.211093,48.8869304 19.9735342,49.3885243 C19.7252758,49.4888431 19.4480851,49.4766548 19.2091597,49.3575848 C18.9702343,49.2375773 18.7947735,49.0210013 18.7247758,48.7631727 C18.5045165,47.9456216 17.7681411,47.3746484 16.9337689,47.3746484 C16.5585814,47.3746484 16.1964601,47.4862179 15.8866038,47.6990437 C15.6719443,47.8453028 15.4068864,47.8949934 15.1530282,47.8368648 C14.9001033,47.7787362 14.6826439,47.6174761 14.5529149,47.3915245 C13.8744042,46.207388 12.6704443,45.4995312 11.3339555,45.4995312 C9.83600547,45.4995312 8.48738375,46.3948997 7.89940335,47.7806113 C7.73887537,48.1584474 7.35342155,48.3918995 6.94556848,48.3450216 L6.94556848,48.3450216 Z M50.5335822,9.87511719 L44.9337689,9.87511719 L44.9337689,11.7502344 L50.5335822,11.7502344 L50.5335822,9.87511719 L50.5335822,9.87511719 Z M45.8670711,13.624414 L45.8670711,16.8702419 L49.60028,18.5362835 L49.60028,13.624414 L45.8670711,13.624414 L45.8670711,13.624414 Z M54.2667911,24.8751172 L54.2667911,22.6718545 L50.1705276,20.8426777 C50.1705276,20.8426777 50.1705276,20.8426777 50.1695943,20.8426777 L44.5716476,18.3431464 C44.5707143,18.3431464 44.569781,18.3422089 44.569781,18.3422089 L30,11.8383649 L5.73320889,22.6718545 L5.73320889,24.8751172 L7.59981334,24.8751172 L7.59981334,23.9375586 C7.59981334,23.5644103 7.82100597,23.2268892 8.16166128,23.0778174 L29.6276124,13.7022314 C29.8656045,13.5990999 30.1343955,13.5990999 30.3723876,13.7022314 L51.839272,23.0778174 C52.1799273,23.2268892 52.4001867,23.5644103 52.4001867,23.9375586 L52.4001867,24.8751172 L54.2667911,24.8751172 L54.2667911,24.8751172 Z M51.7926069,48.7800488 C51.5443485,48.9469342 51.230759,48.9816239 50.9507683,48.8766173 C50.6707776,48.7716107 50.4579847,48.5381586 50.378654,48.2493906 C49.9288024,46.6302269 48.4588514,45.4995312 46.8003733,45.4995312 C45.4638845,45.4995312 44.2599247,46.207388 43.5804807,47.3915245 C43.4507516,47.6174761 43.2342255,47.7787362 42.9813006,47.8368648 C42.7274424,47.8949934 42.4614513,47.8453028 42.2477251,47.6990437 C41.9378687,47.4862179 41.5757475,47.3746484 41.20056,47.3746484 C40.3783207,47.3746484 39.6652778,47.9137446 39.4244859,48.7144197 C39.3348888,49.015376 39.0996967,49.2516407 38.8001067,49.3416464 C38.0021333,49.5825989 37.4673511,50.2988937 37.4673511,51.1248828 L56.1333956,51.1248828 C56.1333956,49.5741609 54.8781041,48.312207 53.3334889,48.312207 C52.7856405,48.312207 52.2527249,48.4744047 51.7926069,48.7800488 L51.7926069,48.7800488 Z M47.8438052,49.2741421 C47.6664778,49.2741421 47.4882171,49.223514 47.3295557,49.1185074 C46.8507716,48.7997375 46.5847805,48.8588037 46.2870571,49.0678792 C45.8661378,49.3669604 45.2828239,49.2647665 44.9869671,48.8409901 C44.690177,48.4181511 44.7909736,47.8331146 45.2128262,47.5349709 C46.1993267,46.8355522 47.2866238,46.8430527 48.358988,47.5537221 C48.7892404,47.8396775 48.9068364,48.4209638 48.6231126,48.8531783 C48.4439185,49.1260079 48.1471284,49.2741421 47.8438052,49.2741421 L47.8438052,49.2741421 Z M12.9299023,47.6381024 C13.3442885,47.9456216 13.4320189,48.5334708 13.1249625,48.9488093 C12.9420353,49.1972623 12.660178,49.3294581 12.3736542,49.3294581 C12.181394,49.3294581 11.9863338,49.2694543 11.820206,49.144759 C11.3554215,48.800675 11.0884971,48.8456779 10.7814406,49.0397525 C10.3455885,49.3163323 9.76880771,49.1831989 9.49441685,48.7444215 C9.220026,48.3056441 9.35255491,47.7271704 9.78840705,47.4515282 C10.5005166,47.0005625 11.6251458,46.6667917 12.9299023,47.6381024 L12.9299023,47.6381024 Z M27.2000933,39.8282393 C27.7152762,39.8282393 28.1800607,40.2942059 28.1800607,40.8126758 C28.1800607,41.3302081 27.7152762,41.7971123 27.2000933,41.7971123 C26.6849105,41.7971123 26.220126,41.3302081 26.220126,40.8126758 C26.220126,40.2942059 26.6849105,39.8282393 27.2000933,39.8282393 L27.2000933,39.8282393 Z M39.3339555,38 L39.3339555,29.5619726 C39.3339555,29.0444403 39.7511416,28.624414 40.2672578,28.624414 L47.7336755,28.624414 C48.2488584,28.624414 48.6669778,29.0444403 48.6669778,29.5619726 L48.6669778,38 C49.1821606,38 49.60028,38.4200263 49.60028,38.9375586 C49.60028,39.4550909 49.1821606,39.8751172 48.6669778,39.8751172 L47.7336755,39.8751172 L40.2672578,39.8751172 L39.3339555,39.8751172 C38.8178394,39.8751172 38.4006533,39.4550909 38.4006533,38.9375586 C38.4006533,38.4200263 38.8178394,38 39.3339555,38 L39.3339555,38 Z M41.20056,38 L46.8003733,38 L46.8003733,34.2497656 L41.20056,34.2497656 L41.20056,38 L41.20056,38 Z M41.20056,32.3746484 L46.8003733,32.3746484 L46.8003733,30.4995312 L41.20056,30.4995312 L41.20056,32.3746484 L41.20056,32.3746484 Z M20.6669778,39.8751172 L19.7336755,39.8751172 L12.2672578,39.8751172 L11.3339555,39.8751172 C10.8178394,39.8751172 10.4006533,39.4550909 10.4006533,38.9375586 C10.4006533,38.4200263 10.8178394,38 11.3339555,38 L11.3339555,29.5619726 C11.3339555,29.0444403 11.7520749,28.624414 12.2672578,28.624414 L19.7336755,28.624414 C20.2488584,28.624414 20.6669778,29.0444403 20.6669778,29.5619726 L20.6669778,38 C21.1821606,38 21.60028,38.4200263 21.60028,38.9375586 C21.60028,39.4550909 21.1821606,39.8751172 20.6669778,39.8751172 L20.6669778,39.8751172 Z M18.8003733,30.4995312 L13.20056,30.4995312 L13.20056,32.3746484 L18.8003733,32.3746484 L18.8003733,30.4995312 L18.8003733,30.4995312 Z M18.8003733,34.2497656 L13.20056,34.2497656 L13.20056,38 L18.8003733,38 L18.8003733,34.2497656 L18.8003733,34.2497656 Z" id="Icon"></path>
            </g>
            <g id="Business-Solutions-/-Pricing-/-Plan-1" fill="#2F92DD">
                <path d="M57.0666978,57 L53.3521549,57 C53.3456218,57 53.340022,56.9990712 53.3334889,57 L38.7497083,57 L21.2502917,57 L6.66651112,57 L2.93330222,57 C2.4181194,57 2,56.5848154 2,56.0711755 C2,55.5584643 2.4181194,55.142351 2.93330222,55.142351 L6.10092997,55.142351 L26.2966568,16.5561939 L21.6936102,8.68347724 C21.4341522,8.23949912 21.5853472,7.67198734 22.0305323,7.41377412 C22.4757175,7.15370326 23.0468984,7.30510165 23.3063565,7.74907978 L27.3167561,14.60752 L29.0666978,11.2628229 L29.0666978,3.92882452 C29.0666978,3.41611339 29.4848172,3 30,3 C30.5151828,3 30.9333022,3.41611339 30.9333022,3.92882452 L30.9333022,11.2637518 L32.6916436,14.6233101 L36.710443,7.74907978 C36.969901,7.30603048 37.541082,7.15556091 37.9862671,7.41377412 C38.4323856,7.67198734 38.5835805,8.23949912 38.3241225,8.68347724 L33.7117429,16.5729127 L53.9000033,55.142351 L57.0666978,55.142351 C57.5818806,55.142351 58,55.5584643 58,56.0711755 C58,56.5848154 57.5818806,57 57.0666978,57 L57.0666978,57 Z M37.2116263,55.142351 L30,41.364168 L22.7883737,55.142351 L37.2116263,55.142351 L37.2116263,55.142351 Z M11.1416953,49.5331797 L8.20459318,55.142351 L20.6837772,55.142351 L24.388987,48.0637793 L22.5363821,46.2367815 L19.460218,49.2981871 C19.2772908,49.4793079 19.0383654,49.5703327 18.79944,49.5703327 C18.561448,49.5703327 18.3225226,49.4793079 18.1405286,49.2981871 L15.0662311,46.2395679 L11.9928669,49.2981871 C11.761408,49.5285356 11.440352,49.5963397 11.1416953,49.5331797 L11.1416953,49.5331797 Z M30,13.50129 L24.7511083,23.5298084 L26.2667911,25.0372906 L29.3401553,21.9786714 C29.7050765,21.6164299 30.2949235,21.6164299 30.6598447,21.9786714 L33.7332089,25.0372906 L35.2488917,23.5298084 L30,13.50129 L30,13.50129 Z M36.1532616,25.2564932 L34.3930536,27.0073274 C34.2110596,27.189377 33.9721343,27.279473 33.7332089,27.279473 C33.4942835,27.279473 33.2553582,27.189377 33.0733642,27.0073274 L30,23.9487082 L26.9266358,27.0073274 C26.5617146,27.3704978 25.9718676,27.3704978 25.6069464,27.0073274 L23.8476717,25.2564932 L18.3589214,35.7438508 L18.79944,36.1831848 L21.8737375,33.1245657 C22.2377254,32.7613953 22.8285057,32.7613953 23.1934269,33.1245657 L26.2667911,36.1831848 L29.3401553,33.1245657 C29.7050765,32.7613953 30.2949235,32.7613953 30.6598447,33.1245657 L33.7332089,36.1831848 L36.8065731,33.1245657 C37.1714943,32.7613953 37.7622746,32.7613953 38.1262625,33.1245657 L41.20056,36.1831848 L41.6420119,35.7438508 L36.1532616,25.2564932 L36.1532616,25.2564932 Z M42.5454485,37.4705356 L41.8594714,38.1522928 C41.6774774,38.3343424 41.438552,38.4253672 41.20056,38.4253672 C40.9616346,38.4253672 40.7227092,38.3343424 40.539782,38.1522928 L37.4664178,35.0946025 L34.3930536,38.1522928 C34.0281324,38.5154632 33.4382854,38.5154632 33.0733642,38.1522928 L30,35.0946025 L26.9266358,38.1522928 C26.5617146,38.5154632 25.9718676,38.5154632 25.6069464,38.1522928 L22.5335822,35.0946025 L19.460218,38.1522928 C19.0952968,38.5154632 18.5045165,38.5154632 18.1405286,38.1522928 L17.4545515,37.4705356 L13.3405553,45.3302487 L14.4073198,44.2695311 C14.7713076,43.9063607 15.3620879,43.9063607 15.7270091,44.2695311 L18.79944,47.3281503 L21.8737375,44.2695311 C22.2377254,43.9072896 22.8247725,43.9072896 23.190627,44.2667446 L25.2914903,46.3389521 L29.1721609,38.924146 C29.4932169,38.310193 30.5067831,38.310193 30.8278391,38.924146 L34.7122429,46.3463827 L36.8075064,44.2686023 C37.1724276,43.9063607 37.7622746,43.9072896 38.1262625,44.2695311 L41.20056,47.3281503 L44.2739242,44.2695311 C44.6379121,43.9063607 45.2286924,43.9063607 45.5926802,44.2695311 L46.6594447,45.3302487 L42.5454485,37.4705356 L42.5454485,37.4705356 Z M48.859238,49.5331797 C48.7948402,49.5461832 48.7323089,49.5703327 48.6669778,49.5703327 C48.4280524,49.5703327 48.189127,49.4793079 48.0071331,49.2981871 L44.9337689,46.2395679 L41.8594714,49.2981871 C41.4954835,49.6604286 40.9047032,49.6604286 40.539782,49.2981871 L37.4654845,46.2386391 L35.6156795,48.0721387 L39.3162228,55.142351 L51.7954068,55.142351 L48.859238,49.5331797 L48.859238,49.5331797 Z" id="Icon"></path>
            </g>
        </g>
    </g>
</svg>